<?xml version="1.0" encoding="utf-8"?>
<!-- Generator: Adobe Illustrator 16.0.3, SVG Export Plug-In . SVG Version: 6.00 Build 0)  -->
<!DOCTYPE svg PUBLIC "-//W3C//DTD SVG 1.1//EN" "http://www.w3.org/Graphics/SVG/1.1/DTD/svg11.dtd">
<svg version="1.1" xmlns="http://www.w3.org/2000/svg" xmlns:xlink="http://www.w3.org/1999/xlink" x="0px" y="0px"
	 width="1023.872px" height="304.962px" viewBox="0 0 1023.872 304.962" enable-background="new 0 0 1023.872 304.962"
	 xml:space="preserve">
<g id="Layer_1">
	
		<image overflow="visible" width="1024" height="305" xlink:href="MapCarte32_ise_large_72.png"  transform="matrix(0.9999 0 0 0.9999 0 0)">
	</image>
</g>
<g id="Layer_2">
	<path fill="none" stroke="#FFFFFF" d="M956.333,182.334l-11,30.667h-94l-18,6c0,0-87.999,1.666-86.666,1.666l-36.75,20.167
		l-207.04,2.492L492,241.833l-68.688-22.646l-86.938-1.125L187.5,217.833L73.186,206.701l-16.588-6.924l-13.931-13.444l0.833-2.052
		c0,0,78.118-52.045,79.667-52.948c0.412-0.24,9.333-1.167,9.333-1.167s8.422-5.695,8.833-5.833
		c2.454-0.821,150.954-19.762,162.292-22.458"/>
</g>
</svg>
